<svg width="1024" height="1024" viewBox="0 0 1024 1024" fill="none" xmlns="http://www.w3.org/2000/svg">
<path fill-rule="evenodd" clip-rule="evenodd" d="M864.289 774.71C855.779 787.723 849.053 800.607 839.95 814.154C808.187 861.942 767.915 903.49 721.134 936.729C690.158 958.694 657.12 975.847 621.869 989.991C535.918 1024.47 441.7 1021.75 353.056 999.427C260.841 976.203 169.03 928.331 113.081 848.84C81.7457 804.332 62.2691 752.577 56.4886 698.455C55.2194 685.423 52.6074 654.896 62.2149 645.055C68.4806 638.637 79.7404 664.1 81.8039 667.652C95.1642 690.649 118.479 715.292 144.833 722.549C171.494 729.906 199.98 726.467 224.122 712.975C233.748 707.481 242.324 700.426 250.399 692.878C297.572 648.78 314.265 581.996 328.662 521.289C334.083 497.53 339.954 473.876 346.271 450.339C369.295 366.725 404.374 279.876 477.555 227.77C552.019 174.75 647.563 164.294 734.275 188.317C791.612 204.707 842.149 239.124 878.388 286.469C939.897 367.945 949.316 482.515 932.414 580.257C927.141 610.764 919.476 638.899 911.238 668.68C912.898 672 923.351 679.889 927.097 683.061C944.344 693.698 959.091 719.951 963.44 739.445C970.646 770.298 971.115 805.291 954.362 833.263C944.567 849.616 927.477 861.586 908.984 850.223C886.335 836.306 893.649 803.542 881.497 785.337C876.392 780.065 871.025 777.392 864.289 774.71Z" fill="#2AFCF8"/>
<path d="M882.184 784.386C883.728 782.756 886.4 777.898 887.631 775.705C903.918 746.713 916.837 715.646 926.412 683.82C926.751 683.575 927.084 683.331 927.422 683.086C944.533 693.621 959.163 719.624 963.478 738.933C970.626 769.491 971.092 804.15 954.471 831.855C944.754 848.052 927.8 859.908 909.453 848.654C886.983 834.87 894.24 802.418 882.184 784.386Z" fill="#2AFCF8"/>
<path d="M865.184 773.701C866.081 770.674 871.804 761.617 873.594 758.233C888.551 730.009 900.099 699.772 911.529 670.086C913.168 673.33 923.486 681.04 927.184 684.14C926.847 684.381 926.515 684.623 926.179 684.864C916.651 716.264 903.796 746.916 887.59 775.521C886.366 777.684 883.707 782.478 882.17 784.086C877.131 778.935 871.833 776.323 865.184 773.701Z" fill="#04B9CD"/>
<path d="M615.674 516.288C619.529 515.93 621.305 515.861 624.928 517.698C632.168 521.464 638.46 527.057 645.246 531.555C680.494 554.91 722.853 567.073 765.001 558.563C772.389 557.07 779.787 554.035 787.259 553.5C791.839 553.407 796.739 556.569 796.132 561.529C794.617 573.849 784.692 583.4 775.804 591.287C769.344 596.821 765.756 598.476 758.565 602.316C733.524 615.682 701.73 615.844 674.981 606.995C650.364 598.854 627.514 580.97 615.462 557.64C611.01 549.032 606.1 532.38 609.11 522.515C610.191 518.974 612.604 517.742 615.674 516.288Z" fill="#04B9CD"/>
<path d="M451.392 611.339C460.07 610.71 468.793 611.255 477.328 612.965C541.174 625.485 560.353 687.947 550.918 745.696C546.023 775.663 524.784 809.6 490.685 802.007C471.948 797.521 459.753 779.96 455.599 762.052C451.442 744.14 450.172 728.516 429.406 724.556C411.765 721.196 400.118 717.602 390.011 701.578C388.5 698.718 380.533 683.273 384.088 680.726C384.683 681.087 395.532 694.267 398.015 696.606C411.492 709.31 426.305 705.91 442.426 710.306C467.849 717.235 467.57 745.522 476.837 765.309C482.109 776.471 496.227 788.595 508.491 780.183C542.264 757.026 537.534 693.741 519.505 661.757C515.554 654.748 509.667 647.661 503.78 642.243C485.018 624.603 461.421 621.436 437.913 615.23C443.1 612.93 445.776 612.301 451.392 611.339Z" fill="#04B9CD"/>
<path d="M612.059 383.297C620.257 382.376 629.605 384.549 636.924 388.207C648.153 393.93 656.633 403.895 660.473 415.89C662.87 423.125 666.482 453.44 656.94 456.086C650.078 455.542 646.808 440.587 641.643 434.99C636.532 429.451 635.594 428.312 628.692 424.304C589.924 406.597 578.685 445.059 567.973 440.288C566.99 439.159 566.37 437.896 566.266 436.371C565.169 419.69 575.202 402.722 588.237 392.915C595.829 387.2 602.959 384.75 612.059 383.297Z" fill="#04B9CD"/>
<path d="M820.115 425.445C850.895 421.525 872.94 450.388 871.073 479.797C870.741 484.992 870.902 496.402 865.435 499.078C859.074 499.506 853.885 482.364 849.469 476.972C844.871 471.353 845.218 471.026 838.954 466.464C837.494 465.574 835.769 464.749 834.201 464.074C821.087 458.34 805.907 460.95 795.359 470.75C791.719 474.102 783.564 484.564 778.278 481.921C771.809 473.859 781.903 451.911 787.234 445.003C795.896 433.772 806.405 427.474 820.115 425.445Z" fill="#04B9CD"/>
<path d="M620.172 7.17279L620.843 7.14822C626.906 6.94936 635.109 7.28312 641.315 7.36451C673.82 7.6376 706.255 10.4609 738.32 15.8089C795.796 24.82 906.826 51.4797 949.004 91.4425C957.504 99.4959 962.871 107.878 963.172 119.87C963.38 127.989 960.73 134.651 955.136 140.477C935.152 161.307 889.318 163.614 862.329 164.078C823.93 164.255 785.58 161.369 747.634 155.446C713.946 150.319 679.67 141.046 646.574 132.845C631.705 129.162 615.801 122.747 601.574 117.454C576.435 108.103 551.103 97.2492 531.169 78.7765C517.236 66.2228 511.045 45.572 525.249 30.7323C541.112 14.1576 572.281 10.5503 594.056 7.81504C601.105 6.92889 612.649 7.33005 620.172 7.17279ZM554.097 51.8735C567.037 65.2299 578.743 70.5038 595.437 77.9454C632.658 94.5406 671.906 104.413 711.558 113.023C727.65 116.472 749.326 120.936 765.596 123.084C790.044 126.311 820.945 129.2 845.492 129.516L854.106 129.588C877.839 129.377 904.952 128.859 926.514 118.217C893.689 83.4406 781.243 57.3382 734.038 49.8903C701.899 44.9264 669.483 42.0044 636.984 41.1417C633.348 41.0466 629.481 40.8964 625.86 40.927C602.99 41.5049 574.881 42.0268 554.097 51.8735Z" fill="#04B9CD"/>
</svg>
