<svg width="2847" height="718" viewBox="0 0 2847 718" fill="none" xmlns="http://www.w3.org/2000/svg">
<path d="M408.413 123.455C429.978 121.724 460.641 126.59 481.152 132.772C531.076 147.802 573.02 181.982 597.82 227.843C636.912 301.313 631.061 389.091 607.381 466.398C580.056 555.602 518.262 638.573 435.165 682.573C353.251 725.947 273.477 724.976 186.791 698.384C105.679 670.092 33.9341 617.745 9.20305 531.891C5.84255 520.224 -9.11432 461.469 8.20598 457.854C15.8639 459.718 22.2692 476.206 32.6269 484.853C47.9169 498.516 70.2674 510.112 91.7285 507.687C164.954 499.412 181.659 416.564 195.507 359.444C210.239 298.673 225.975 241.689 266.314 194.444C303.839 150.499 351.687 127.448 408.413 123.455ZM620.48 483.711C651.975 507.863 657.456 602.232 612.9 605.057C595.368 600.575 591.885 573.707 585.493 558.333C592.318 545.128 598.767 531.732 604.832 518.162C609.498 507.709 615.195 493.497 620.48 483.711ZM290.858 430.466C285.02 431.049 276.218 432.172 271.343 435.508L270.697 437.382C273.221 438.43 282.184 438.07 285.924 438.439C329.629 442.724 346.3 497.314 332.938 533.451C329.368 543.106 318.063 553.353 307.825 547.777C293.131 539.771 294.161 516.465 281.46 505.51C270.642 496.18 260.13 500.127 248.041 494.66C240.667 491.275 239.665 484.577 235.288 482.628C233.526 485.272 233.335 487.804 233.956 490.961C234.128 491.82 234.323 492.677 234.54 493.527C247.355 517.236 262.869 502.236 275.171 521.519C279.24 529.424 281.008 538.209 284.873 546.211C292.183 561.218 315.144 571.389 330.231 562.484C346.855 552.671 354.282 528.068 353.558 509.768C352.339 478.971 341.212 441.139 307.873 432.466C302.326 430.991 296.596 430.317 290.858 430.466ZM1056.97 237.548C1083.36 237.485 1109.79 235.57 1135.92 240.631C1186.37 250.405 1217.09 286.332 1206.08 339.125C1201.7 360.131 1190.43 371.998 1172.81 383.159C1182.84 388.384 1189.54 392.26 1198.04 400.068C1227.91 427.523 1229.15 484.158 1199.96 512.886C1163.12 549.142 1103.71 542.256 1056.03 542.18C1031.32 542.292 1003.27 541.195 978.834 542.798C970.514 543.343 953.334 551.052 942.554 552.089C919.104 555.78 907.103 542.552 890.643 528.81C873.724 514.682 864.363 525.514 854.233 539.09C855.683 532.67 857.353 526.267 860.823 520.606C878.723 491.391 906.134 519.323 929.384 513.528C935.353 512.039 939.784 508.036 942.834 502.798C948.684 492.721 950.873 478.388 951.983 466.869C954.003 446.072 954.873 291.491 950.853 277.649C949.473 272.87 946.163 266.058 941.453 263.785C938.023 262.13 932.903 261.971 929.413 263.301C920.383 266.738 916.803 281.42 912.934 289.454C910.314 290.289 911.543 290.388 909.103 289.214C905.964 277.989 909.974 262.765 917.434 253.904C927.354 242.126 940.394 238.878 955.044 237.426L1056.97 237.548ZM1366.11 306.149C1433.37 301.127 1491.9 351.725 1496.65 419.001C1501.4 486.278 1450.57 544.604 1383.27 549.086C1316.36 553.542 1258.44 503.058 1253.71 436.163C1248.99 369.269 1299.24 311.144 1366.11 306.149ZM1641.23 306.365C1708.2 301.313 1766.56 351.541 1771.55 418.513C1776.53 485.484 1726.25 543.799 1659.27 548.717C1592.39 553.627 1534.17 503.427 1529.2 436.551C1524.22 369.675 1574.36 311.411 1641.23 306.365ZM2032.56 312.856C2054.01 312.375 2076.84 312.751 2098.39 312.733L2098.47 390.604C2098.39 424.848 2091.5 487.233 2142.19 486.736C2200.14 486.166 2195.4 424.707 2195.29 383.653C2195.16 360.004 2195.16 336.354 2195.27 312.705L2260.62 312.706L2260.68 397.78L2260.78 542.163L2198.46 542.124C2198.53 532.51 2198.25 522.512 2198.12 512.868C2196.87 514.213 2195.6 515.537 2194.31 516.84C2158.99 552.333 2097.78 557.229 2060.97 520.872C2028.15 488.457 2032.52 434.605 2032.52 391.99L2032.56 312.856ZM2318.94 225.496C2340.45 225.854 2362.54 225.608 2384.09 225.614C2383.11 260.128 2384.09 299.219 2384.15 334.078C2405.52 316.89 2421.26 310.724 2448.71 309.306C2556.58 303.738 2597.28 443.127 2529.04 514.347L2524.78 518.546C2504.77 537.956 2477.67 546.567 2450.2 545.797C2419.66 544.941 2401.14 535.257 2380.43 513.806L2380.47 542.531C2359.83 542.309 2339.18 542.223 2318.53 542.272L2318.58 327.502L2318.42 262.799C2318.38 252.846 2317.91 234.984 2318.94 225.496ZM2706.69 309.348C2757.77 308.257 2801.05 332.406 2820.24 381.064C2828.69 402.461 2827.78 423.574 2828.15 446.166C2770.91 445.48 2712.63 446.146 2655.24 445.909C2673.19 502.598 2730.57 496.228 2774.16 479.154C2799.23 469.335 2827.02 475.658 2839.57 501.456C2845.64 514.655 2846.23 527.278 2845.99 541.371C2842.12 533.325 2837.16 519.182 2830.69 514.121C2806.99 495.66 2782.99 523.74 2762.8 533.611C2718.01 555.506 2666.21 546.886 2629.07 514.222C2581.09 472.031 2579.44 396.125 2620.41 348.681C2642.06 323.602 2670.55 311.527 2703.11 309.445C2704.3 309.406 2705.5 309.374 2706.69 309.348ZM2013.04 237.621C2012.94 256.677 2012.97 275.734 2013.13 294.791L1919.79 294.697L1919.98 452.282L1920.07 542.067L1852.15 542.086C1851.79 459.669 1851.89 377.25 1852.45 294.834L1758.32 294.776L1758.25 237.627L2013.04 237.621ZM2481.69 471.585C2510.97 433.3 2494.18 360.925 2437.51 364.348C2420.92 366.537 2407.54 371.482 2396.68 385.47C2376.59 411.351 2380.09 457.202 2406.35 477.825C2416.83 486.061 2430.42 489.139 2443.6 489.253C2457.88 487.99 2472.63 483.433 2481.69 471.585ZM1420.55 467.108C1447.83 425.425 1425.64 360.472 1369.64 364.273C1352.28 367.317 1340.22 372.55 1329.59 387.589C1319.11 402.682 1315.15 421.362 1318.6 439.408C1324.77 473.313 1348.4 490.782 1382.32 489.107C1398.01 486.138 1411.31 481.23 1420.55 467.108ZM1694.49 468.147C1723.21 427.936 1701.89 362.174 1646.9 364.395C1571.08 372.91 1575.09 491.639 1655.56 489.033C1672.14 486.391 1684.17 482.578 1694.49 468.147ZM1101.94 414.618C1073.86 414.964 1047.61 414.827 1021.14 414.685C1021 438.443 1020.65 463.367 1021.19 487.09L1080.34 487.163C1100.29 487.207 1123.91 489.555 1140.85 477.41C1144.32 474.13 1147.96 470.26 1149.43 465.83C1161.48 429.447 1133.44 414.229 1101.94 414.618ZM415.314 373.363C409.54 369.332 401.436 363.241 394.427 363.662C376.26 398.358 454.533 463.848 512.265 414.737C518.006 408.943 531.717 395.85 523.752 387.749C514.708 386.719 504.757 389.913 495.812 391.631C466.477 397.264 439.617 390.327 415.314 373.363ZM2765.43 405.346C2759.36 375.025 2735.95 355.728 2704.49 359.315C2676.37 363.786 2662.16 378.406 2655.17 405.574L2715.28 405.373L2765.43 405.346ZM1094.74 291.908C1070.45 291.725 1045.45 292.192 1020.85 292.027C1020.87 314.939 1020.69 338.177 1020.98 361.061C1038.25 361.142 1055.64 361.333 1072.91 361.261C1090.59 361.187 1113.85 363.718 1128.31 351.808C1136.31 344.283 1139.01 340.857 1139.81 329.621C1141.78 301.905 1119.23 292.092 1094.74 291.908ZM576.797 339.94C577.497 320.874 565.171 298.033 543.44 299.174C531.801 301.844 522.146 306.342 515.668 316.786C512.485 321.919 507.605 331.659 511.301 337.307C525.163 342.793 526.879 323.158 552.321 330.616L553.284 331.139C564.077 337.066 566.434 350.932 574.817 348.601C576.726 345.831 576.676 343.218 576.797 339.94ZM426.84 321.792C440.833 312.05 427.172 266.94 391.152 270.231C377.528 273.852 371.293 279.57 364.077 291.655C360.981 296.84 358.778 305.039 363.839 309.446C379.01 312.053 376.869 288.469 408.739 304.194L409.546 304.887C417.299 311.676 419.43 321.222 426.84 321.792ZM396.142 1.4318C445.26 -5.31193 518.054 13.1394 565.266 28.1173C629.676 48.5533 690.894 103.037 578.5 113.884C509.083 116.836 407.049 99.4504 347.863 60.1857C341.342 55.9776 330.406 42.9733 330.142 34.8224C329.234 6.80854 378.901 3.21378 396.142 1.4318ZM546.798 48.4543C501.134 33.9964 439.377 23.8382 392.057 27.423C377.53 28.858 371.251 29.8942 357.484 34.5519C387.851 67.4396 503.489 88.0356 549.091 89.1457C558.819 89.3817 572.798 89.6332 582.782 89.0382C589.864 88.4634 609.15 89.0188 609.623 80.0431C603.48 67.7944 559.402 52.4443 546.798 48.4543Z" fill="#FEFEFE"/>
</svg>
