<svg width="646" height="718" viewBox="0 0 646 718" fill="none" xmlns="http://www.w3.org/2000/svg">
<path fill-rule="evenodd" clip-rule="evenodd" d="M408.413 123.455C429.978 121.724 460.641 126.59 481.152 132.772C531.076 147.802 573.02 181.982 597.82 227.843C636.912 301.313 631.061 389.091 607.381 466.398C580.056 555.602 518.262 638.573 435.165 682.573C353.251 725.947 273.477 724.976 186.791 698.384C105.679 670.092 33.9341 617.745 9.20305 531.891C5.84255 520.224 -9.11432 461.469 8.20598 457.854C15.8639 459.718 22.2692 476.206 32.6269 484.853C47.9169 498.516 70.2674 510.112 91.7285 507.687C164.954 499.412 181.659 416.564 195.507 359.444C210.239 298.673 225.975 241.689 266.314 194.444C303.839 150.499 351.687 127.448 408.413 123.455ZM620.48 483.711C651.975 507.863 657.456 602.232 612.9 605.057C595.368 600.575 591.885 573.707 585.493 558.333C592.318 545.128 598.767 531.732 604.832 518.162C609.498 507.709 615.195 493.497 620.48 483.711ZM290.858 430.466C285.02 431.049 276.218 432.172 271.343 435.508L270.697 437.382C273.221 438.43 282.184 438.07 285.924 438.439C329.629 442.724 346.3 497.314 332.938 533.451C329.368 543.106 318.063 553.353 307.825 547.777C293.131 539.771 294.161 516.465 281.46 505.51C270.642 496.18 260.13 500.127 248.041 494.66C240.667 491.275 239.665 484.577 235.288 482.628C233.526 485.272 233.335 487.804 233.956 490.961C234.128 491.82 234.323 492.677 234.54 493.527C247.355 517.236 262.869 502.236 275.171 521.519C279.24 529.424 281.008 538.209 284.873 546.211C292.183 561.218 315.144 571.389 330.231 562.484C346.855 552.671 354.282 528.068 353.558 509.768C352.339 478.971 341.212 441.139 307.873 432.466C302.326 430.991 296.596 430.317 290.858 430.466ZM415.314 373.363C409.54 369.332 401.436 363.241 394.427 363.662C376.26 398.358 454.533 463.848 512.265 414.737C518.006 408.943 531.717 395.85 523.752 387.749C514.708 386.719 504.757 389.913 495.812 391.631C466.477 397.264 439.617 390.327 415.314 373.363ZM576.797 339.94C577.497 320.874 565.171 298.033 543.44 299.174C531.801 301.844 522.146 306.342 515.668 316.786C512.485 321.919 507.605 331.659 511.301 337.307C525.163 342.793 526.879 323.158 552.321 330.616L553.284 331.139C564.077 337.066 566.434 350.932 574.817 348.601C576.726 345.831 576.676 343.218 576.797 339.94ZM426.84 321.792C440.833 312.05 427.172 266.94 391.152 270.231C377.528 273.852 371.293 279.57 364.077 291.655C360.981 296.84 358.778 305.039 363.839 309.446C379.01 312.053 376.869 288.469 408.739 304.194L409.546 304.887C417.299 311.676 419.43 321.222 426.84 321.792ZM396.142 1.4318C445.26 -5.31193 518.054 13.1394 565.266 28.1173C629.676 48.5533 690.894 103.037 578.5 113.884C509.083 116.836 407.049 99.4504 347.863 60.1857C341.342 55.9776 330.406 42.9733 330.142 34.8224C329.234 6.80854 378.901 3.21378 396.142 1.4318ZM546.798 48.4543C501.134 33.9964 439.377 23.8382 392.057 27.423C377.53 28.858 371.251 29.8942 357.484 34.5519C387.851 67.4396 503.489 88.0356 549.091 89.1457C558.819 89.3817 572.798 89.6332 582.782 89.0382C589.864 88.4634 609.15 89.0188 609.623 80.0431C603.48 67.7944 559.402 52.4443 546.798 48.4543Z" fill="#FEFEFE"/>
</svg>
